<svg width="40" height="12" viewBox="0 0 40 12" fill="none" xmlns="http://www.w3.org/2000/svg">
<path d="M4.25694 4.46831C4.84396 4.46831 5.33566 4.76075 5.56645 5.08243V4.55117H6.46454V8.52341H5.85244C5.69188 8.52341 5.56143 8.39669 5.56143 8.2456V7.99215C5.33064 8.30896 4.84396 8.60139 4.25193 8.60139C3.13809 8.60139 2.28516 7.67048 2.28516 6.53485C2.28516 5.39923 3.13809 4.46831 4.25694 4.46831ZM4.42251 5.26276C3.69501 5.26276 3.20332 5.81839 3.20332 6.53485C3.20332 7.25132 3.69501 7.80695 4.42251 7.80695C5.15002 7.80695 5.64171 7.25132 5.64171 6.53485C5.64171 5.81839 5.15002 5.26276 4.42251 5.26276Z" fill="#042036" fill-opacity="0.7"/>
<path d="M7.48562 4.54629H8.38371V5.0873C8.62956 4.69251 9.09616 4.46831 9.62799 4.46831C10.5763 4.46831 11.1884 5.12142 11.1884 6.13032V8.52341H10.5763C10.4157 8.52341 10.2853 8.39669 10.2853 8.24073V6.27166C10.2853 5.64293 9.95913 5.26276 9.43232 5.26276C8.83527 5.26276 8.37869 5.71603 8.37869 6.5641V8.51854H7.76659C7.60604 8.51854 7.47559 8.39182 7.47559 8.23585V4.54629H7.48562Z" fill="#042036" fill-opacity="0.7"/>
<path d="M13.8743 4.46816C14.4613 4.46816 14.953 4.7606 15.1838 5.08228V2.56246H16.0819V8.52326H15.4698C15.3092 8.52326 15.1788 8.39654 15.1788 8.24058V7.98713C14.948 8.30394 14.4563 8.59637 13.8692 8.59637C12.7504 8.59637 11.8975 7.66546 11.8975 6.52983C11.8975 5.39421 12.7554 4.46816 13.8743 4.46816ZM14.0398 5.26261C13.3123 5.26261 12.8206 5.81824 12.8206 6.53471C12.8206 7.25117 13.3123 7.8068 14.0398 7.8068C14.7673 7.8068 15.259 7.25117 15.259 6.53471C15.259 5.81824 14.7673 5.26261 14.0398 5.26261Z" fill="#042036" fill-opacity="0.7"/>
<path d="M17.1037 4.54668H18.0017V5.25339C18.1623 4.80987 18.5938 4.50768 19.0805 4.50768C19.1959 4.50768 19.3163 4.51743 19.4317 4.53693V5.4386C19.2862 5.38986 19.1356 5.36549 18.9801 5.36549C18.4633 5.36549 17.9967 5.78465 17.9967 6.58397V8.52379H17.3896C17.2291 8.52379 17.0986 8.39707 17.0986 8.24111V4.54668H17.1037Z" fill="#042036" fill-opacity="0.7"/>
<path d="M21.8611 8.60139C20.652 8.60139 19.7188 7.6851 19.7188 6.53485C19.7188 5.38461 20.652 4.46831 21.8611 4.46831C23.0703 4.46831 24.0035 5.38461 24.0035 6.53485C24.0035 7.6851 23.0753 8.60139 21.8611 8.60139ZM21.8611 7.79232C22.5836 7.79232 23.0904 7.24157 23.0904 6.53485C23.0904 5.82813 22.5836 5.27738 21.8611 5.27738C21.1336 5.27738 20.6269 5.82326 20.6269 6.53485C20.6269 7.24644 21.1336 7.79232 21.8611 7.79232Z" fill="#042036" fill-opacity="0.7"/>
<path d="M25.1822 3.68366C24.851 3.68366 24.5801 3.42047 24.5801 3.09879C24.5801 2.77711 24.851 2.51392 25.1822 2.51392C25.5133 2.51392 25.7842 2.77711 25.7842 3.09879C25.7842 3.42047 25.5183 3.68366 25.1822 3.68366ZM24.7306 4.54634H25.6287V8.51859H25.0216C24.861 8.51859 24.7306 8.39187 24.7306 8.2359V4.54634Z" fill="#042036" fill-opacity="0.7"/>
<path d="M28.343 4.46816C28.93 4.46816 29.4217 4.7606 29.6525 5.08228V2.56246H30.5506V8.52326H29.9385C29.778 8.52326 29.6525 8.39654 29.6475 8.24545V7.99201C29.4167 8.30881 28.93 8.60125 28.338 8.60125C27.2191 8.60125 26.3662 7.67033 26.3662 6.53471C26.3662 5.39908 27.2242 4.46816 28.343 4.46816ZM28.5086 5.26261C27.7811 5.26261 27.2894 5.81824 27.2894 6.53471C27.2894 7.25117 27.7811 7.8068 28.5086 7.8068C29.2361 7.8068 29.7278 7.25117 29.7278 6.53471C29.7278 5.81824 29.2361 5.26261 28.5086 5.26261Z" fill="#042036" fill-opacity="0.7"/>
<path d="M32.1203 5.05287H31.2373V4.52649H32.1203V3.41524H32.6973V4.52649H33.8965V5.05287H32.6923V7.36311C32.6923 7.8505 32.9131 8.04059 33.3747 8.04059C33.5503 8.04059 33.7259 8.01134 33.8914 7.95286V8.45487C33.6958 8.52798 33.4901 8.5621 33.2844 8.55722C32.587 8.55722 32.1153 8.16731 32.1153 7.40698L32.1203 5.05287Z" fill="#042036" fill-opacity="0.7"/>
<path d="M38.5732 4.52641L36.6516 8.52302H36.2001L34.2734 4.52641H34.9157L36.4208 7.69933L37.926 4.52641H38.5732Z" fill="#042036" fill-opacity="0.7"/>
</svg>
